<svg width="256" height="256" viewBox="0 0 256 256" fill="none" xmlns="http://www.w3.org/2000/svg">
<path d="M127.6 249.2C194.758 249.2 249.2 194.758 249.2 127.6C249.2 60.4422 194.758 6 127.6 6C60.4422 6 6 60.4422 6 127.6C6 194.758 60.4422 249.2 127.6 249.2Z" fill="#83C300"/>
<path d="M132.648 141.782C132.235 131.087 135.193 119.991 138.94 109.032C139.337 107.871 140.069 107.411 141.131 107.206C143.482 106.751 145.765 106.05 148.021 105.259C157.737 101.85 165.884 96.092 172.887 88.625C173.237 88.251 173.578 87.869 173.926 87.493C175.459 85.835 175.48 85.814 177.051 87.376C185.636 95.916 191.735 105.966 195.104 117.602C204.581 150.341 189.441 184.86 158.966 200.117C158.128 200.537 157.267 200.914 156.406 201.288C154.456 202.134 154.476 202.109 153.015 200.429C141.915 187.672 135.692 172.796 133.587 156.085C133.031 151.672 132.654 147.261 132.648 141.782Z" fill="#FEFEFE"/>
<path d="M122.704 141.267C122.325 155.7 120.299 168.268 115.156 180.204C111.917 187.721 107.289 194.355 102.051 200.588C100.731 202.159 100.678 202.159 98.831 201.311C82.828 193.966 71.065 182.321 63.646 166.36C58.73 155.783 56.677 144.595 57.447 132.979C58.617 115.322 65.524 100.182 77.975 87.588C78.095 87.467 78.216 87.346 78.341 87.229C79.782 85.871 79.82 85.838 81.121 87.292C85.009 91.64 89.323 95.497 94.177 98.74C100.057 102.668 106.43 105.502 113.334 107.008C115.177 107.41 116.066 108.244 116.625 109.989C118.946 117.227 121.233 124.471 122.026 132.072C122.398 135.633 122.558 139.216 122.704 141.267Z" fill="#FEFEFE"/>
<path d="M127.668 95.452C113.069 95.462 101.308 89.751 91.693 79.308C90.324 77.822 90.339 77.742 92.061 76.711C95.731 74.516 99.596 72.727 103.613 71.266C104.414 70.975 105.234 70.732 106.026 70.418C107.272 69.924 107.311 69.769 106.543 68.578C106.266 68.149 105.938 67.753 105.633 67.342C102.381 62.957 99.126 58.575 95.882 54.184C95.376 53.499 94.836 52.819 94.464 52.061C93.412 49.92 94.073 47.474 95.976 46.162C97.839 44.878 100.122 45.068 101.811 46.73C102.475 47.383 103.027 48.156 103.586 48.908C107.811 54.589 112.071 60.245 116.21 65.988C117.198 67.359 118.216 67.793 119.857 67.564C125.033 66.84 130.236 66.828 135.411 67.569C137.08 67.808 138.069 67.295 139.043 65.949C143.294 60.076 147.652 54.281 151.979 48.463C152.436 47.849 152.886 47.212 153.436 46.686C155.19 45.009 157.634 44.893 159.495 46.341C161.271 47.723 161.796 50.007 160.75 52.083C160.408 52.762 159.935 53.381 159.48 53.997C156.235 58.387 152.979 62.769 149.727 67.154C149.422 67.565 149.106 67.969 148.817 68.391C147.803 69.874 147.811 69.91 149.394 70.499C150.113 70.767 150.848 70.99 151.57 71.25C155.591 72.702 159.449 74.506 163.128 76.684C164.928 77.749 164.943 77.801 163.616 79.243C153.87 89.832 141.951 95.575 127.668 95.452Z" fill="#FEFEFE"/>
</svg>
