<svg width="256" height="256" viewBox="0 0 256 256" fill="none" xmlns="http://www.w3.org/2000/svg">
<path d="M127.6 249.2C194.758 249.2 249.2 194.758 249.2 127.6C249.2 60.4422 194.758 6 127.6 6C60.4422 6 6 60.4422 6 127.6C6 194.758 60.4422 249.2 127.6 249.2Z" fill="#5B5466"/>
<path fill-rule="evenodd" clip-rule="evenodd" d="M107.525 189.876C111.065 190.348 114.693 190.594 118.386 190.594C157.706 190.594 189.58 162.8 189.58 128.517C189.58 94.232 157.705 66.44 118.386 66.44C115.748 66.44 113.142 66.566 110.581 66.809C130.085 79.693 142.982 102.013 142.982 127.388C142.98 154.066 128.728 177.365 107.525 189.876ZM127.6 204.963C170.327 204.963 204.963 170.327 204.963 127.6C204.963 84.873 170.327 50.237 127.6 50.237C84.873 50.237 50.237 84.873 50.237 127.6C50.237 170.327 84.873 204.963 127.6 204.963Z" fill="white"/>
</svg>
