<svg width="256" height="256" viewBox="0 0 256 256" fill="none" xmlns="http://www.w3.org/2000/svg">
<path d="M127.6 249.2C194.758 249.2 249.2 194.758 249.2 127.6C249.2 60.4422 194.758 6 127.6 6C60.4422 6 6 60.4422 6 127.6C6 194.758 60.4422 249.2 127.6 249.2Z" fill="#006FC9"/>
<path d="M126.685 179.553C141.608 179.712 152.806 173.284 159.505 159.91C167.824 143.301 161.271 123.004 145.002 113.886C144.621 113.673 144.251 113.419 143.843 113.278C142.367 112.769 141.904 111.839 142.139 110.261C142.396 108.543 142.391 106.776 142.383 105.032C142.36 100.273 140.442 96.225 137.558 92.563C137.404 92.368 137.193 92.217 137.009 92.046C136.821 92.308 136.981 92.542 137.095 92.757C139.473 97.254 139.708 102.112 139.564 107.049C139.503 109.115 138.87 110.984 137.964 112.803C136.757 115.229 134.989 116.581 132.161 117.069C115.968 119.859 100.034 123.833 84.105 127.832C73.009 130.618 61.858 133.19 50.732 135.856C50.307 135.958 49.883 136.079 49.451 136.127C49.223 136.152 48.836 136.103 48.777 135.971C48.692 135.784 48.794 135.466 48.903 135.247C49.095 134.857 49.348 134.496 49.583 134.128C58.261 120.574 66.041 106.505 73.533 92.273C74.456 90.519 75.667 89.187 77.289 88.04C90.139 78.959 102.835 69.675 114.77 59.39C124.606 50.914 133.481 41.54 141.453 31.3C141.829 30.817 142.202 30.333 142.592 29.862C142.695 29.738 142.867 29.567 142.987 29.582C143.348 29.627 143.262 29.931 143.219 30.167C143.094 30.854 142.952 31.538 142.821 32.224C140.828 42.624 136.897 52.3 131.925 61.599C130.061 65.085 130.122 65.084 134.114 65.188C166.162 66.022 194.113 87.329 203.312 118.078C213.148 150.959 199.341 185.804 169.942 203.225C165.492 205.862 160.813 207.984 155.932 209.694C154.502 210.195 153.291 210.079 151.925 209.474C145.931 206.817 140.804 202.9 135.971 198.577C130.541 193.721 125.742 188.297 121.811 182.137C121.482 181.622 121.165 181.099 120.855 180.572C120.455 179.892 120.367 179.48 121.449 179.531C123.188 179.614 124.938 179.553 126.685 179.553ZM102.002 94.17C101.856 92.783 101.719 91.395 101.559 90.01C101.519 89.666 101.412 89.329 101.329 88.991C101.168 88.337 100.785 88.142 100.189 88.48C99.811 88.695 99.443 88.932 99.087 89.182C90.856 94.943 84.08 102.166 78.077 110.155C77.156 111.38 77.346 111.705 78.997 111.746C85.9 111.915 92.054 109.883 97.305 105.34C100.699 102.403 102.176 98.631 102.002 94.17Z" fill="#FEFEFE"/>
<path d="M123.195 211.207C116.247 210.43 109.352 209.369 102.632 207.369C91.854 204.162 82.749 198.148 74.462 190.709C62.723 180.171 55.334 167.038 51.119 151.981C50.651 150.311 50.668 150.271 52.455 150.1C63.683 149.022 74.794 147.278 85.715 144.402C92.141 142.709 98.421 140.59 104.59 138.13C105.401 137.807 106.217 137.496 107.04 137.204C107.183 137.153 107.398 137.178 107.531 137.254C107.832 137.426 107.711 137.694 107.582 137.913C107.273 138.44 106.936 138.951 106.622 139.474C105.632 141.12 104.618 142.753 103.664 144.42C98.813 152.89 97.614 161.936 99.205 171.5C101.402 184.714 107.596 195.619 117.728 204.324C120.311 206.544 122.93 208.723 125.517 210.938C125.725 211.116 126.198 211.175 126.016 211.603C125.99 211.664 125.53 211.54 125.27 211.503C124.578 211.403 123.886 211.306 123.195 211.207Z" fill="#FEFEFE"/>
</svg>
