<svg width="256" height="256" viewBox="0 0 256 256" fill="none" xmlns="http://www.w3.org/2000/svg">
<path d="M127.6 249.2C194.758 249.2 249.2 194.758 249.2 127.6C249.2 60.4422 194.758 6 127.6 6C60.4422 6 6 60.4422 6 127.6C6 194.758 60.4422 249.2 127.6 249.2Z" fill="#FB89EB"/>
<path fill-rule="evenodd" clip-rule="evenodd" d="M73.964 180.088L102.703 171.755L127.525 217.141C127.558 217.2 127.642 217.2 127.674 217.141L152.496 171.755L181.235 180.088C181.299 180.107 181.359 180.047 181.34 179.982L173.006 151.812L217.14 127.674C217.199 127.642 217.199 127.557 217.14 127.525L172.642 103.188L181.34 73.788C181.359 73.724 181.299 73.664 181.235 73.682L151.822 82.211L127.674 38.058C127.642 37.999 127.557 37.999 127.525 38.058L103.377 82.211L73.964 73.682C73.9 73.663 73.84 73.723 73.859 73.788L82.557 103.188L38.059 127.525C38 127.557 38 127.642 38.059 127.674L82.193 151.812L73.859 179.982C73.84 180.047 73.9 180.107 73.964 180.088ZM96.265 127.91L116.625 139.045L127.76 159.405C127.792 159.464 127.877 159.464 127.909 159.405L139.044 139.045L159.404 127.91C159.463 127.878 159.463 127.793 159.404 127.761L139.044 116.626L127.909 96.266C127.877 96.207 127.792 96.207 127.76 96.266L116.625 116.626L96.265 127.761C96.207 127.793 96.207 127.877 96.265 127.91Z" fill="white"/>
</svg>
