<svg width="256" height="256" viewBox="0 0 256 256" fill="none" xmlns="http://www.w3.org/2000/svg">
<path d="M127.6 249.2C194.758 249.2 249.2 194.758 249.2 127.6C249.2 60.4422 194.758 6 127.6 6C60.4422 6 6 60.4422 6 127.6C6 194.758 60.4422 249.2 127.6 249.2Z" fill="#E0306A"/>
<path d="M139.536 184.222C120.384 184.222 101.232 184.176 82.08 184.26C78.266 184.277 76.524 183.247 76.53 178.788C76.576 145.352 76.504 111.916 76.469 78.479C76.469 78 76.455 77.52 76.481 77.043C76.615 74.56 77.907 73.235 80.387 73.148C82.22 73.084 84.057 73.129 85.893 73.128C88.925 73.127 91.964 73.255 94.989 73.099C99.786 72.851 100.72 74.848 100.669 78.655C100.548 87.671 100.63 96.689 100.63 105.707C100.63 107.622 100.603 109.538 100.642 111.452C100.708 114.676 101.816 115.777 104.968 115.82C105.606 115.829 106.246 115.844 106.883 115.809C109.152 115.685 110.382 114.491 110.441 112.176C110.512 109.385 110.465 106.59 110.466 103.797C110.467 95.578 110.466 87.358 110.467 79.139C110.467 78.501 110.454 77.862 110.476 77.224C110.575 74.484 111.874 73.193 114.675 73.139C116.988 73.094 119.303 73.127 121.617 73.127C124.49 73.127 127.363 73.104 130.235 73.136C133.317 73.17 134.579 74.407 134.587 77.521C134.615 88.374 134.598 99.227 134.605 110.079C134.606 110.956 134.57 111.844 134.695 112.707C134.965 114.583 136.169 115.669 138.082 115.794C139.115 115.861 140.159 115.863 141.192 115.796C143.211 115.667 144.401 114.519 144.627 112.499C144.715 111.709 144.688 110.905 144.689 110.108C144.692 99.734 144.691 89.36 144.692 78.986C144.692 78.348 144.681 77.709 144.698 77.071C144.778 74.072 146.09 72.733 149.145 72.707C154.172 72.664 159.2 72.66 164.227 72.709C167.255 72.739 168.572 74.089 168.579 77.146C168.604 88.079 168.588 99.011 168.593 109.944C168.593 110.821 168.555 111.708 168.668 112.573C168.934 114.607 170.122 115.692 172.17 115.801C173.204 115.856 174.248 115.863 175.281 115.793C177.177 115.664 178.364 114.557 178.619 112.662C178.735 111.798 178.702 110.91 178.702 110.033C178.707 99.819 178.705 89.604 178.706 79.39C178.706 78.672 178.692 77.953 178.716 77.236C178.81 74.416 180.021 73.165 182.856 73.143C188.122 73.102 193.39 73.099 198.656 73.145C201.436 73.169 202.719 74.494 202.84 77.264C202.861 77.742 202.848 78.221 202.848 78.7C202.817 111.897 202.785 145.094 202.751 178.291C202.75 179.089 202.784 179.893 202.7 180.683C202.473 182.822 201.277 183.999 199.148 184.189C198.356 184.26 197.553 184.22 196.755 184.22C177.68 184.222 158.608 184.222 139.536 184.222Z" fill="#FEFEFE"/>
<path d="M68.526 145.065C68.526 156.147 68.527 167.229 68.523 178.311C68.523 179.187 68.546 180.071 68.448 180.939C68.218 182.97 67.119 184.073 65.081 184.374C64.532 184.455 63.965 184.41 63.412 184.471C60.446 184.796 58.626 183.671 57.253 180.838C53.498 173.095 49.416 165.509 45.418 157.884C44.696 156.506 44.276 155.128 44.284 153.56C44.312 147.9 44.298 142.239 44.251 136.578C44.238 135.019 44.586 133.608 45.305 132.226C49.496 124.163 53.685 116.099 57.792 107.994C58.663 106.275 59.845 105.454 61.742 105.551C62.855 105.608 63.981 105.507 65.086 105.619C67.181 105.831 68.384 107.087 68.59 109.19C68.66 109.901 68.627 110.624 68.627 111.341C68.629 122.583 68.628 133.824 68.628 145.066C68.594 145.065 68.56 145.065 68.526 145.065Z" fill="#FEFEFE"/>
</svg>
