<svg width="256" height="256" viewBox="0 0 256 256" fill="none" xmlns="http://www.w3.org/2000/svg">
<path d="M127.6 249.2C194.758 249.2 249.2 194.758 249.2 127.6C249.2 60.4422 194.758 6 127.6 6C60.4422 6 6 60.4422 6 127.6C6 194.758 60.4422 249.2 127.6 249.2Z" fill="#FF9741"/>
<path d="M182.541 185.55C182.514 186.439 181.915 187.044 181.458 187.718C174.091 198.579 164.145 205.876 151.458 209.352C142.874 211.704 134.15 213.343 125.225 212.701C102.684 211.079 84.01 202.133 71.059 183.028C64.719 173.676 61.598 163.137 60.768 151.907C59.639 136.646 62.872 122.136 68.394 108.028C68.96 106.583 69.554 105.148 70.172 103.725C70.334 103.352 70.404 102.707 71.014 102.878C71.371 102.978 71.288 103.486 71.29 103.833C71.296 104.746 71.277 105.66 71.281 106.573C71.322 117.486 72.286 128.278 75.562 138.76C76.653 142.25 77.948 145.664 79.516 148.97C79.699 149.357 79.875 149.909 80.432 149.73C80.588 149.68 80.653 149.063 80.611 148.724C80.059 144.185 79.866 139.621 79.764 135.058C79.366 117.296 83.888 101.247 96.439 88.096C99.904 84.466 103.525 80.987 107.626 78.036C110.89 75.687 113.961 73.097 116.731 70.159C121.98 64.592 124.575 57.945 124.922 50.356C125.136 45.67 124.525 41.063 123.64 36.48C123.536 35.943 123.428 35.406 123.356 34.864C123.334 34.699 123.412 34.378 123.472 34.371C123.71 34.343 123.971 34.377 124.199 34.457C124.359 34.514 124.483 34.68 124.617 34.804C131.471 41.19 137.669 48.102 141.99 56.514C145.839 64.008 147.473 71.954 146.833 80.363C146.629 83.045 146.655 83.077 143.988 83.876C136.087 86.243 130.534 93.986 130.902 102.666C131.244 110.734 136.685 117.833 144.504 119.954C154.363 122.629 164.418 116.591 167.097 106.412C168.224 102.133 167.813 97.903 166.803 93.682C166.229 91.281 165.449 88.944 164.592 86.63C164.415 86.153 163.899 85.525 164.446 85.149C164.901 84.836 165.447 85.39 165.904 85.662C176.563 91.993 185.028 100.438 189.764 112.006C198.034 132.204 195.882 151.441 182.868 169.006C174.396 180.44 162.647 186.047 148.305 185.861C146.576 185.839 144.849 185.58 143.123 185.41C142.68 185.366 142.114 185.392 141.927 184.909C141.722 184.376 142.27 184.157 142.6 183.885C143.164 183.42 143.773 183.008 144.31 182.515C151.963 175.49 154.867 166.789 152.567 156.725C150.308 146.841 144.059 140.3 134.19 137.614C121.361 134.122 107.84 142.106 104.129 155.299C101.471 164.747 103.653 173.275 109.853 180.664C117.437 189.703 127.326 194.508 139.061 195.598C150.424 196.654 161.223 194.28 171.728 190.234C175.385 188.826 178.917 187.093 182.506 185.508L182.541 185.55Z" fill="#FEFEFE"/>
</svg>
