<svg width="256" height="256" viewBox="0 0 256 256" fill="none" xmlns="http://www.w3.org/2000/svg">
<path d="M127.6 249.2C194.758 249.2 249.2 194.758 249.2 127.6C249.2 60.4422 194.758 6 127.6 6C60.4422 6 6 60.4422 6 127.6C6 194.758 60.4422 249.2 127.6 249.2Z" fill="#89AAE3"/>
<path d="M188.976 121.561C189.031 122.475 188.472 123.162 188.095 123.912C181.725 136.583 165.407 147.634 149.725 147.601C146.407 147.594 143.093 147.583 139.78 147.39C139.465 147.372 138.919 147.465 138.861 147.635C138.685 148.156 139.194 148.349 139.574 148.464C143.237 149.573 146.945 150.494 150.735 151.067C156.256 151.902 161.756 151.799 167.225 150.678C172.86 149.523 177.67 146.721 182.117 143.179C182.784 142.648 183.27 141.742 184.322 141.792C183.942 142.544 183.583 143.307 183.179 144.045C177.667 154.107 168.83 159.121 157.776 160.766C154.74 161.218 151.68 161.302 148.617 161.333C147.937 161.34 147.256 161.346 146.578 161.392C146.354 161.407 145.997 161.446 146.083 161.803C146.133 162.01 146.328 162.255 146.521 162.341C147.062 162.582 147.631 162.767 148.199 162.941C149.418 163.313 150.65 163.642 151.864 164.027C153.163 164.439 153.228 164.523 152.641 165.826C150.497 170.585 147.725 174.956 144.316 178.909C135.548 189.077 124.56 195.498 111.337 197.756C80.39 203.041 52.321 182.643 46.745 153.224C41.105 123.468 59.568 95.236 89.014 88.227C93.333 87.199 97.723 86.775 102.164 86.787C110.838 86.811 119.518 86.978 128.187 86.753C143.627 86.352 158.84 84.268 173.655 79.733C178.054 78.386 182.296 76.645 186.311 74.373C193.024 70.575 198.387 65.302 202.904 59.127C204.81 56.521 206.573 53.809 208.41 51.151C208.589 50.892 208.753 50.487 209.167 50.642C209.555 50.787 209.464 51.201 209.453 51.516C209.255 57.047 208.741 62.556 207.659 67.98C205.547 78.572 201.787 88.612 196.282 97.875C187.83 112.095 175.496 121.47 159.511 125.903C155.397 127.044 151.131 127.395 146.894 127.596C140.611 127.895 134.31 127.979 128.079 126.781C127.747 126.717 127.405 126.694 127.067 126.672C126.83 126.657 126.554 126.67 126.526 126.969C126.514 127.095 126.665 127.286 126.793 127.363C127.081 127.536 127.397 127.665 127.708 127.796C137.564 131.946 147.753 134.272 158.519 133.341C165.328 132.752 171.972 131.405 178.322 128.8C181.982 127.298 185.29 125.264 188.005 122.338C188.285 122.037 188.665 121.829 188.998 121.577L188.976 121.561Z" fill="#FEFEFE"/>
</svg>
