<svg width="256" height="256" viewBox="0 0 256 256" fill="none" xmlns="http://www.w3.org/2000/svg">
<path d="M127.6 249.2C194.758 249.2 249.2 194.758 249.2 127.6C249.2 60.4422 194.758 6 127.6 6C60.4422 6 6 60.4422 6 127.6C6 194.758 60.4422 249.2 127.6 249.2Z" fill="#4C6AB2"/>
<path d="M192.672 195.691C191.788 195.205 190.912 194.705 190.035 194.205C189.68 194.003 189.321 193.808 188.968 193.604C186.55 192.202 184.532 190.328 182.782 188.175C180.358 185.194 179.944 181.949 181.676 178.473C182.178 177.467 182.987 176.709 183.704 175.873C202.404 154.071 208.181 129.265 199.736 101.795C189.111 67.231 154.674 44.048 116.419 48.385C99.977 50.249 85.308 56.599 73.199 67.911C51.529 88.155 43.628 112.996 49.594 142.138C56.953 170.088 73.97 187.002 100.692 197.977C108.078 200.511 116.843 202.566 124.539 203.811C130.415 204.761 135.629 205.011 141.553 205.053C144.51 205.074 147.64 205.045 151.123 205.023C157.472 205.088 159.957 204.828 164.343 204.429C173.918 203.557 183.019 200.802 191.812 196.977C192.101 196.851 192.387 196.719 192.675 196.593C193.374 196.288 193.252 196.01 192.672 195.691ZM115.134 117.261C113.779 125.89 106.608 132.046 97.879 132.022C90.518 132.002 84.072 127.453 81.599 120.534C79.141 113.655 81.262 105.938 86.89 101.306C87.315 100.956 87.751 100.612 88.216 100.321C89.211 99.698 89.396 99.765 89.532 100.925C89.81 103.295 90.407 105.562 91.523 107.679C95.623 115.455 104.875 118.924 113.161 115.619C115.663 114.621 115.447 115.265 115.134 117.261ZM136.005 118.04C135.899 117.501 135.812 116.953 135.78 116.405C135.697 115.002 135.873 114.842 137.181 115.401C141.02 117.042 144.95 117.319 148.954 116.211C155.637 114.362 160.557 108.524 161.36 101.627C161.426 101.059 161.094 100.209 161.888 100.001C162.517 99.836 163.016 100.458 163.513 100.826C169.379 105.171 171.857 113.028 169.579 120.021C167.211 127.287 160.631 132.041 152.967 132.022C144.655 132.001 137.605 126.193 136.005 118.04Z" fill="#FEFEFE"/>
</svg>
