<svg width="256" height="256" viewBox="0 0 256 256" fill="none" xmlns="http://www.w3.org/2000/svg">
<path d="M127.6 249.2C194.758 249.2 249.2 194.758 249.2 127.6C249.2 60.4422 194.758 6 127.6 6C60.4422 6 6 60.4422 6 127.6C6 194.758 60.4422 249.2 127.6 249.2Z" fill="#38BF4B"/>
<path d="M136.311 163.718C129.992 163.718 123.674 163.718 117.355 163.718C116.765 163.718 116.175 163.719 115.586 163.709C114.848 163.697 114.385 163.499 114.911 162.664C115.18 162.237 115.444 161.806 115.711 161.377C120.965 152.941 126.241 144.517 131.454 136.055C132.309 134.668 133.238 133.921 134.988 133.74C145.373 132.666 155.741 131.431 166.114 130.243C166.697 130.176 167.294 130.105 167.846 129.923C169.118 129.503 169.83 128.604 169.805 127.58C169.78 126.568 169.04 125.624 167.811 125.238C167.013 124.987 166.17 124.851 165.337 124.75C158.064 123.866 150.788 123.002 143.513 122.132C139.796 121.687 140.571 121.499 141.99 119.231C148.96 108.092 155.941 96.959 162.912 85.821C163.403 85.036 163.873 84.237 164.32 83.427C164.69 82.756 164.923 82.028 164.885 81.251C164.791 79.327 163.235 78.414 161.525 79.293C160.458 79.841 159.668 80.731 158.857 81.59C149.782 91.212 140.706 100.832 131.627 110.451C129.054 113.177 129.374 113.106 128.036 109.726C125.403 103.071 122.787 96.409 120.152 89.755C119.843 88.974 119.532 88.18 119.103 87.463C118.365 86.227 117.169 85.639 116.193 85.909C115.191 86.186 114.472 87.313 114.469 88.718C114.468 89.304 114.568 89.893 114.652 90.476C116.103 100.559 117.54 110.644 119.031 120.721C119.308 122.592 118.96 124.006 117.549 125.458C110.739 132.466 104.066 139.606 97.345 146.7C96.997 147.067 96.663 147.448 96.298 147.797C95.354 148.699 95.23 148.697 94.891 147.431C93.062 140.6 91.256 133.763 89.465 126.922C87.845 120.733 86.255 114.536 84.651 108.343C84.354 107.196 84.041 106.063 83.084 105.243C81.637 104.002 79.943 104.403 79.215 106.178C78.848 107.072 78.954 107.997 79.043 108.922C79.667 115.376 80.291 121.829 80.908 128.284C81.66 136.163 82.407 144.043 83.15 151.923C83.379 154.354 83.536 156.792 83.827 159.215C83.959 160.315 83.719 161.125 82.941 161.937C78.104 166.986 73.32 172.086 68.5 177.15C67.257 178.456 67.195 178.454 66.01 177.092C59.022 169.061 54.201 159.866 51.817 149.508C47.18 129.36 50.261 110.523 62.006 93.332C67.268 85.629 74.166 79.696 82.133 74.846C96.249 66.252 111.535 60.756 127.526 56.957C139.748 54.053 152.073 51.766 164.59 50.657C171.386 50.055 178.208 49.794 185.036 49.902C186.903 49.932 186.933 49.941 187.417 51.767C189.229 58.608 190.738 65.517 191.849 72.507C194.489 89.11 195.404 105.828 194.949 122.618C194.67 132.904 193.812 143.136 190.979 153.098C188.399 162.169 184.457 170.65 179.063 178.341C170.302 190.831 158.199 198.803 143.575 202.762C127.137 207.212 111.049 205.879 95.501 198.79C94.965 198.546 94.438 198.283 93.917 198.008C93.456 197.765 93.409 197.365 93.629 196.945C93.863 196.499 94.144 196.077 94.41 195.648C97.744 190.284 101.116 184.943 104.388 179.541C105.206 178.19 106.178 177.583 107.762 177.344C119.582 175.563 131.386 173.672 143.195 171.812C147.603 171.118 152.01 170.424 156.414 169.707C157.241 169.572 158.084 169.412 158.86 169.11C160.1 168.626 160.858 167.476 160.767 166.404C160.66 165.151 159.825 164.494 158.762 164.04C157.799 163.629 156.782 163.694 155.773 163.694C149.286 163.693 142.799 163.693 136.312 163.693C136.311 163.697 136.311 163.708 136.311 163.718Z" fill="#FEFEFE"/>
</svg>
