<svg width="256" height="256" viewBox="0 0 256 256" fill="none" xmlns="http://www.w3.org/2000/svg">
<path d="M127.6 249.2C194.758 249.2 249.2 194.758 249.2 127.6C249.2 60.4422 194.758 6 127.6 6C60.4422 6 6 60.4422 6 127.6C6 194.758 60.4422 249.2 127.6 249.2Z" fill="#E87236"/>
<path fill-rule="evenodd" clip-rule="evenodd" d="M83.051 173.856C83.008 173.856 82.978 173.814 82.992 173.773L123.28 70.938C123.289 70.913 123.312 70.897 123.339 70.897H174.346C174.372 70.897 174.396 70.914 174.405 70.939L214.094 173.774C214.108 173.814 214.078 173.856 214.035 173.856H83.051ZM35.359 174.302C35.316 174.302 35.286 174.259 35.301 174.218L66.301 94.125C66.31 94.101 66.333 94.085 66.359 94.085H92.426C92.469 94.085 92.499 94.128 92.484 94.168L62.475 174.261C62.466 174.285 62.443 174.302 62.417 174.302H35.359V174.302Z" fill="white"/>
</svg>
