<svg width="256" height="256" viewBox="0 0 256 256" fill="none" xmlns="http://www.w3.org/2000/svg">
<path d="M127.6 249.2C194.758 249.2 249.2 194.758 249.2 127.6C249.2 60.4422 194.758 6 127.6 6C60.4422 6 6 60.4422 6 127.6C6 194.758 60.4422 249.2 127.6 249.2Z" fill="#4CD1C0"/>
<path d="M80.008 106.491L123.443 127.624L80.008 148.709L36.572 127.629L80.008 106.491Z" fill="white"/>
<path d="M175.192 106.491L131.757 127.624L175.192 148.709L218.628 127.629L175.192 106.491Z" fill="white"/>
<path d="M175.192 52.127L131.757 74.989V119.755L132.087 119.591L132.704 119.284L175.18 98.148L175.179 98.147L175.192 98.141V52.127Z" fill="white"/>
<path d="M175.192 203.073L131.757 180.211V135.445L132.087 135.609L132.704 135.916L175.18 157.052L175.179 157.053L175.192 157.059V203.073Z" fill="white"/>
<path d="M80.0081 52.127L123.443 74.989V119.755L123.113 119.591L122.496 119.284L80.0201 98.148L80.0211 98.147L80.0081 98.141V52.127Z" fill="white"/>
<path d="M80.0081 203.073L123.443 180.211V135.445L123.113 135.609L122.496 135.916L80.0201 157.052L80.0211 157.053L80.0081 157.059V203.073Z" fill="white"/>
</svg>
