<svg width="256" height="256" viewBox="0 0 256 256" fill="none" xmlns="http://www.w3.org/2000/svg">
<path d="M127.6 249.2C194.758 249.2 249.2 194.758 249.2 127.6C249.2 60.4422 194.758 6 127.6 6C60.4422 6 6 60.4422 6 127.6C6 194.758 60.4422 249.2 127.6 249.2Z" fill="#B567CE"/>
<path d="M128.427 48.754C148.045 49.065 166.885 54.536 183.289 67.231C194.009 75.528 202.13 85.87 206.403 98.837C212.867 118.455 209.629 136.704 197.874 153.53C194.009 159.062 189.323 163.864 184.001 168.002C182.442 169.214 182.096 170.333 182.61 172.268C184.57 179.633 184.056 186.89 180.981 193.901C179.303 197.727 176.918 201.027 173.458 203.465C167.812 207.444 161.008 207.446 155.383 203.446C151.417 200.625 148.932 196.707 147.168 192.258C146.869 191.504 146.849 190.157 146.115 190.162C145.09 190.169 145.246 191.563 144.933 192.348C143.343 196.334 141.011 199.738 137.5 202.269C130.908 207.021 122.224 206.528 116.187 201.08C113.39 198.556 111.375 195.518 110.093 191.983C109.894 191.433 109.718 190.871 109.468 190.344C109.282 189.951 108.935 189.915 108.741 190.327C108.422 191.007 108.172 191.719 107.907 192.423C106.586 195.924 104.653 199.025 101.952 201.636C95.289 208.075 86.091 208.058 79.453 201.554C74.615 196.813 72.313 190.876 71.669 184.27C71.252 179.998 71.383 175.705 72.73 171.574C73.207 170.109 72.797 169.292 71.646 168.403C64.609 162.964 58.746 156.453 54.186 148.804C48.107 138.609 45.086 127.564 45.578 115.699C46.176 101.268 51.539 88.648 60.889 77.722C71.863 64.898 85.832 56.829 101.94 52.265C110.292 49.895 118.842 48.869 128.427 48.754ZM127.513 155.498C133.931 155.525 140.221 154.655 146.355 152.764C155.177 150.045 162.975 145.648 169.153 138.655C179.637 126.789 179.993 111.239 170.058 98.908C166.866 94.946 162.991 91.763 158.63 89.171C150.702 84.459 142.095 81.979 132.922 81.234C121.286 80.288 110.187 82.167 99.741 87.41C92.089 91.251 85.689 96.565 81.572 104.231C76.847 113.028 76.596 122.008 80.941 131.028C84.445 138.302 90.087 143.576 96.964 147.59C106.393 153.094 116.659 155.454 127.513 155.498Z" fill="#FEFEFE"/>
</svg>
