<svg width="256" height="256" viewBox="0 0 256 256" fill="none" xmlns="http://www.w3.org/2000/svg">
<path d="M127.6 249.2C194.758 249.2 249.2 194.758 249.2 127.6C249.2 60.4422 194.758 6 127.6 6C60.4422 6 6 60.4422 6 127.6C6 194.758 60.4422 249.2 127.6 249.2Z" fill="#FF6675"/>
<path d="M188.506 183.457C187.779 184.533 186.647 185.141 185.629 185.857C175.08 193.275 163.362 197.78 150.677 199.928C143.848 201.085 136.978 201.459 130.084 201.12C114.165 200.339 99.249 196.279 85.972 187.138C71.068 176.877 61.755 162.83 57.701 145.237C56.024 137.961 55.477 130.58 55.959 123.155C56.796 110.239 60.074 97.988 67.092 87.004C76.171 72.795 88.901 63.198 104.939 57.99C114.118 55.01 123.532 53.592 133.173 54.042C147.936 54.731 161.35 59.287 173.03 68.498C182.204 75.734 188.391 85.102 192.041 96.116C197.425 112.365 196.422 128.193 188.557 143.521C185.965 148.573 182.189 152.599 178.068 156.354C170.512 163.238 161.829 168.077 151.707 169.85C136.847 172.453 123.406 169.292 112.039 159.031C104.827 152.522 100.749 144.303 99.47 134.67C98.656 128.544 99.018 122.488 101.077 116.682C105.326 104.701 114.017 97.592 126.296 94.983C133.926 93.362 141.368 94.234 148.131 98.476C155.321 102.985 159.276 109.707 160.404 117.946C161.792 128.087 154.352 138.078 144.164 140.326C141.152 140.99 138.153 141.05 135.138 140.325C129.328 138.928 124.612 133.879 123.692 128.021C123.34 125.778 123.713 123.581 124.258 121.425C124.605 120.052 125.565 119.516 126.727 119.795C127.84 120.063 128.519 121.034 128.317 122.338C128.156 123.374 128.056 124.399 128.182 125.432C128.877 131.107 133.739 134.517 139.605 133.457C139.751 133.431 139.893 133.387 140.038 133.357C150.253 131.216 151.253 120.665 147.683 114.643C145.146 110.364 141.248 107.975 136.457 107.003C126.74 105.032 118.665 111.114 115.643 118.217C111.849 127.134 113.372 135.384 119.642 142.65C128.223 152.593 142.889 154.988 154.497 148.446C164.372 142.881 170.37 134.46 171.832 123.224C173.289 112.028 170.39 102.072 162.741 93.415C155.864 85.632 147.328 81.205 137.314 79.606C112.528 75.648 91.716 88.388 82.791 110.218C79.105 119.234 77.985 128.648 79.037 138.338C80.643 153.132 86.689 165.79 97.391 176.115C106.808 185.201 118.03 190.958 130.925 193.288C150.329 196.795 168.632 193.329 186.029 184.356C186.805 183.956 187.509 183.332 188.478 183.428L188.506 183.457Z" fill="#FEFEFE"/>
</svg>
