<svg width="256" height="256" viewBox="0 0 256 256" fill="none" xmlns="http://www.w3.org/2000/svg">
<path d="M127.6 249.2C194.758 249.2 249.2 194.758 249.2 127.6C249.2 60.4422 194.758 6 127.6 6C60.4422 6 6 60.4422 6 127.6C6 194.758 60.4422 249.2 127.6 249.2Z" fill="#C8B686"/>
<path fill-rule="evenodd" clip-rule="evenodd" d="M173.599 124.04C173.589 124.027 173.585 124.01 173.588 123.994L184.35 61.238C184.355 61.209 184.38 61.188 184.409 61.188H187.815C187.841 61.188 187.864 61.205 187.872 61.23L212.119 138.001C212.127 138.025 212.118 138.051 212.099 138.067L194.221 152.025C194.194 152.046 194.156 152.04 194.136 152.013L173.599 124.04ZM43.077 165.643C43.077 165.669 43.094 165.692 43.118 165.7L79.971 177.75C79.989 177.756 80.009 177.753 80.024 177.742L162.398 120.873C162.412 120.863 162.421 120.849 162.423 120.832L171.257 61.56C171.263 61.524 171.234 61.491 171.198 61.491H98.235C98.217 61.491 98.2 61.499 98.189 61.513L43.091 127.98C43.082 127.991 43.077 128.004 43.077 128.019V165.643ZM95.328 180.82L135.589 194.008C135.607 194.014 135.627 194.011 135.643 194L183.576 159.617C183.603 159.598 183.609 159.562 183.591 159.535L165.622 132.796C165.603 132.768 165.566 132.761 165.538 132.78L95.328 180.82Z" fill="white"/>
</svg>
