<svg width="256" height="256" viewBox="0 0 256 256" fill="none" xmlns="http://www.w3.org/2000/svg">
<path d="M127.6 249.2C194.758 249.2 249.2 194.758 249.2 127.6C249.2 60.4422 194.758 6 127.6 6C60.4422 6 6 60.4422 6 127.6C6 194.758 60.4422 249.2 127.6 249.2Z" fill="#5A8EA2"/>
<path fill-rule="evenodd" clip-rule="evenodd" d="M44.336 127.584C44.314 127.546 44.314 127.499 44.336 127.461L86.219 55.903C86.241 55.866 86.281 55.844 86.323 55.844H169.336C169.38 55.844 169.419 55.866 169.442 55.905L210.865 127.463C210.886 127.5 210.886 127.548 210.865 127.585L169.442 199.064C169.42 199.101 169.38 199.125 169.336 199.125H86.323C86.279 199.125 86.24 199.103 86.219 199.066L44.336 127.584ZM166.187 127.482C166.187 148.786 148.917 166.056 127.613 166.056C106.309 166.056 89.039 148.786 89.039 127.482C89.039 106.178 106.309 88.908 127.613 88.908C148.917 88.908 166.187 106.178 166.187 127.482Z" fill="white"/>
</svg>
