<svg width="256" height="256" viewBox="0 0 256 256" fill="none" xmlns="http://www.w3.org/2000/svg">
<path d="M127.6 249.2C194.758 249.2 249.2 194.758 249.2 127.6C249.2 60.4422 194.758 6 127.6 6C60.4422 6 6 60.4422 6 127.6C6 194.758 60.4422 249.2 127.6 249.2Z" fill="#3692DC"/>
<path d="M128.132 210.828C98.898 210.492 76.359 190.745 70.75 165.026C68.214 153.397 69.317 142.032 73.564 130.886C80.066 113.823 88.637 97.833 98.334 82.421C106.814 68.944 115.445 55.562 124.002 42.133C124.987 40.587 125.93 39.013 126.883 37.446C127.378 36.632 127.855 36.64 128.345 37.442C128.475 37.655 128.608 37.868 128.737 38.081C137.897 53.2 147.876 67.8 157.169 82.834C165.596 96.466 173.42 110.413 179.419 125.316C181.786 131.195 184.177 137.06 185.091 143.4C187.613 160.879 183.41 176.548 172.062 190.069C161.518 202.631 147.844 209.349 131.488 210.596C130.159 210.697 128.829 210.78 128.132 210.828ZM124.397 192.48C130.383 192.509 136.04 191.228 141.189 188.223C151.262 182.344 157.048 173.721 157.532 161.867C157.568 160.988 157.915 159.488 157.228 159.339C156.124 159.1 156.049 160.635 155.594 161.42C149.792 171.441 141.121 177.015 129.578 177.472C111.624 178.182 97.453 163.513 97.853 146.374C97.869 145.707 97.903 145.04 97.889 144.375C97.884 144.154 97.817 143.833 97.665 143.737C97.287 143.498 97.075 143.859 96.88 144.109C96.624 144.437 96.382 144.779 96.168 145.136C90.097 155.28 89.529 165.698 95.428 175.989C101.773 187.06 111.824 192.118 124.397 192.48Z" fill="#FEFEFE"/>
</svg>
