<?xml version="1.0" standalone="no"?>
<!DOCTYPE svg PUBLIC "-//W3C//DTD SVG 20010904//EN"
 "http://www.w3.org/TR/2001/REC-SVG-20010904/DTD/svg10.dtd">
<svg version="1.0" xmlns="http://www.w3.org/2000/svg"
 width="595.000000pt" height="595.000000pt" viewBox="0 0 595.000000 595.000000"
 preserveAspectRatio="xMidYMid meet">
<metadata>
Created by potrace 1.14, written by Peter Selinger 2001-2017
</metadata>
<g transform="translate(0.000000,595.000000) scale(0.100000,-0.100000)"
fill="#000000" stroke="none">
<path d="M2804 5530 c-500 -36 -960 -207 -1364 -508 -143 -106 -399 -361 -501
-497 -459 -616 -621 -1371 -453 -2120 59 -264 205 -605 357 -833 419 -627
1078 -1035 1817 -1127 162 -20 468 -20 630 0 585 73 1111 337 1525 766 811
841 946 2122 330 3119 -201 323 -531 649 -857 843 -223 133 -537 257 -773 306
-225 46 -504 66 -711 51z m325 -2081 c81 -28 158 -77 211 -137 287 -321 65
-822 -365 -822 -143 0 -282 61 -371 163 -54 63 -105 175 -117 262 -52 357 302
651 642 534z m-955 -714 c60 -187 179 -345 343 -455 123 -82 312 -140 458
-140 201 0 417 87 567 228 113 107 179 209 229 357 l27 80 656 3 656 2 0 -22
c0 -46 -30 -220 -54 -316 -204 -804 -841 -1419 -1648 -1591 -216 -46 -505 -59
-708 -32 -328 44 -667 168 -925 340 -450 299 -772 749 -904 1264 -26 100 -61
296 -61 341 0 15 57 16 671 14 l671 -3 22 -70z"/>
</g>
</svg>
