<svg width="40" height="36" viewBox="0 0 40 36" fill="none" xmlns="http://www.w3.org/2000/svg">
<path d="M30.0298 17.99C27.8598 23.51 21.4198 27.99 15.6998 27.99C15.4198 28.6567 15.1398 29.3233 14.8598 29.99C21.7498 29.99 29.4998 24.61 32.0698 17.99C31.3898 17.99 30.7098 17.99 30.0298 17.99ZM15.6998 27.99C10.0098 27.99 7.3198 23.51 9.5998 17.99C8.9198 17.99 8.24313 17.99 7.5698 17.99C4.8298 24.61 8.0398 29.99 14.8598 29.99C15.1398 29.3233 15.4198 28.6567 15.6998 27.99ZM9.5998 17.99C11.8698 12.46 18.2598 7.99 23.8798 7.99C24.1531 7.32333 24.4265 6.65667 24.6998 5.99C17.9698 5.99 10.2798 11.36 7.5698 17.99C8.24313 17.99 8.9198 17.99 9.5998 17.99ZM23.8798 7.99C29.4598 7.99 32.1998 12.46 30.0298 17.99C30.7098 17.99 31.3898 17.99 32.0698 17.99C34.6498 11.36 31.3698 5.99 24.6998 5.99C24.4265 6.65667 24.1531 7.32333 23.8798 7.99ZM36.1598 17.99C32.7998 26.82 22.4398 33.99 13.1598 33.99C12.8731 34.6567 12.5865 35.3233 12.2998 35.99C22.7898 35.99 34.4698 27.93 38.2098 17.99C37.5298 17.99 36.8465 17.99 36.1598 17.99ZM13.1598 33.99C4.0798 33.99 -0.150202 26.82 3.5098 17.99C2.83647 17.99 2.16313 17.99 1.4898 17.99C-2.6402 27.93 2.0898 35.99 12.2998 35.99C12.5865 35.3233 12.8731 34.6567 13.1598 33.99ZM3.5098 17.99C7.1098 9.15 17.3698 1.99 26.3698 1.99C26.6565 1.32333 26.9398 0.66 27.2198 0C17.0698 0 5.5198 8.04 1.4898 17.99C2.16313 17.99 2.83647 17.99 3.5098 17.99ZM26.3698 1.99C35.2098 1.99 39.5398 9.15 36.1598 17.99C36.8465 17.99 37.5298 17.99 38.2098 17.99C41.9698 8.04 37.1198 0 27.2198 0C26.9398 0.66 26.6565 1.32333 26.3698 1.99ZM23.8898 17.99C23.0098 20.19 20.4298 21.99 18.1698 21.99C17.8965 22.6567 17.6231 23.3233 17.3498 23.99C20.7598 23.99 24.6098 21.3 25.9398 17.99C25.2531 17.99 24.5698 17.99 23.8898 17.99ZM18.1698 21.99C15.9098 21.99 14.8098 20.19 15.7198 17.99C15.0398 17.99 14.3598 17.99 13.6798 17.99C12.3098 21.3 13.9398 23.99 17.3498 23.99C17.6231 23.3233 17.8965 22.6567 18.1698 21.99ZM15.7198 17.99C16.6198 15.78 19.1798 13.99 21.4298 13.99C21.6965 13.3233 21.9665 12.6567 22.2398 11.99C18.8598 11.99 15.0398 14.67 13.6798 17.99C14.3598 17.99 15.0398 17.99 15.7198 17.99ZM21.4298 13.99C23.6698 13.99 24.7798 15.78 23.8898 17.99C24.5698 17.99 25.2531 17.99 25.9398 17.99C27.2598 14.67 25.5998 11.99 22.2398 11.99C21.9665 12.6567 21.6965 13.3233 21.4298 13.99Z" fill="white"/>
</svg>
