<svg width="40" height="40" viewBox="0 0 40 40" fill="none" xmlns="http://www.w3.org/2000/svg">
<path d="M1 20C1 30.4934 9.50659 39 20 39C30.4934 39 39 30.4934 39 20C39 9.50659 30.4934 1 20 1C9.50659 1 1 9.50659 1 20Z" stroke="white"/>
<path d="M20 1C14.9609 1 10.1282 3.00178 6.56497 6.56497C3.00178 10.1282 1 14.9609 1 20C1 25.0391 3.00178 29.8718 6.56497 33.435C10.1282 36.9982 14.9609 39 20 39C22.5196 39 24.9359 37.9991 26.7175 36.2175C28.4991 34.4359 29.5 32.0196 29.5 29.5C29.5 26.9804 28.4991 24.5641 26.7175 22.7825C24.9359 21.0009 22.5196 20 20 20C17.4804 20 15.0641 18.9991 13.2825 17.2175C11.5009 15.4359 10.5 13.0196 10.5 10.5C10.5 7.98044 11.5009 5.56408 13.2825 3.78249C15.0641 2.00089 17.4804 1 20 1" fill="white"/>
</svg>
